:SAMPLES-PER-SECOND 30
:FULLY-SPECIFIED
:DEGREES
192
root  -5.65293 42.0715 -0.0939096 -7.3107 -77.0229 12.2544
RightUpLeg  3.62613 -6.01772 -5.44099
RightLeg  -0.620455 -25.5308 2.94287
RightFoot  7.97225 -1.82716 11.0294
RightToes  -3.11842e-008 1.75238e-005 3.56266e-009
Spine  0.186651 9.13064 14.7921
Spine1  -9.28186 9.97197 -14.3657
HEad  -37.1024 -20.0062 2.94714
LeftShoulder1  1.74359 -4.09238 -16.2699
LeftArm  -55.2338 -47.3878 -24.7137
LeftForeArm  49.4899 -27.1748 -3.38417
LeftHand  -0.357494 -0.229654 7.48617
RightShoulder  4.53079 11.9989 22.979
RightArm  13.7668 55.7275 95.6131
RightForeArm  -59.7783 34.1307 9.88163
RightHand  -0.601181 1.61081 -10.1123
LeftUpLeg  -0.75165 1.06294 2.42873
LeftLeg  -2.36056 0.961415 -2.03405
LeftFoot  11.5251 1.56384 -8.07152
LeftToes  4.7713e-008 1.46693e-008 1.32589e-009
193
root  -5.9339 41.864 -0.179592 -7.42268 -76.7117 11.3612
RightUpLeg  4.98165 -6.23164 -5.19287
RightLeg  0.231441 -25.3856 2.74439
RightFoot  5.56796 -1.55241 10.6639
RightToes  -3.11842e-008 1.75238e-005 3.56266e-009
Spine  -1.90385 9.68335 14.1525
Spine1  -5.5177 10.638 -12.9456
HEad  -37.9788 -20.3548 2.96299
LeftShoulder1  1.62721 -3.69835 -15.8276
LeftArm  -60.0862 -40.1175 -15.6495
LeftForeArm  44.4144 -30.9679 -4.33407
LeftHand  -0.314246 -0.601859 6.17252
RightShoulder  4.37982 11.9124 22.1249
RightArm  26.8829 56.6484 99.6214
RightForeArm  -61.01 37.3358 10.8967
RightHand  -0.535885 1.43571 -9.26077
LeftUpLeg  0.641807 0.925009 2.42392
LeftLeg  -1.81634 1.02746 -1.46869
LeftFoot  8.86621 1.2937 -7.54675
LeftToes  4.7713e-008 1.46693e-008 1.32589e-009
194
root  -6.19965 41.5898 -0.247297 -7.23666 -76.3861 10.2679
RightUpLeg  6.81983 -6.17794 -4.6555
RightLeg  -0.291864 -26.0678 3.00549
RightFoot  2.92348 -1.19672 9.69438
RightToes  -3.11842e-008 1.75238e-005 3.56266e-009
Spine  -2.7568 10.0717 13.9136
Spine1  -3.45579 11.2129 -12.6431
HEad  -37.8797 -20.9447 3.63464
LeftShoulder1  1.56025 -3.65767 -14.9438
LeftArm  -62.7116 -32.6699 -9.41921
LeftForeArm  40.2061 -33.8935 -5.24083
LeftHand  -0.275194 0.137146 6.17662
RightShoulder  3.8884 11.2337 19.9768
RightArm  38.6477 58.2464 101.896
RightForeArm  -61.8732 42.2743 12.6886
RightHand  -0.510257 1.54415 -8.69557
LeftUpLeg  2.2917 1.0219 2.55384
LeftLeg  -1.91362 0.667768 -1.05625
LeftFoot  5.945 0.979247 -6.67805
LeftToes  4.7713e-008 1.46693e-008 1.32589e-009
195
root  -6.42943 41.4019 -0.291414 -7.90114 -76.3911 10.0388
RightUpLeg  9.03758 -5.93146 -4.24851
RightLeg  -2.12194 -26.5701 3.65142
RightFoot  1.52029 -0.945653 8.4812
RightToes  -3.11842e-008 1.75238e-005 3.56266e-009
Spine  -3.68727 10.3999 13.1327
Spine1  -1.12702 11.683 -11.8088
HEad  -37.9502 -21.0738 4.53246
LeftShoulder1  1.45574 -3.15255 -15.0238
LeftArm  -62.065 -24.9505 -3.96264
LeftForeArm  33.8914 -36.9297 -6.37139
LeftHand  -0.26933 1.13707 7.23899
RightShoulder  3.56407 10.8456 18.3117
RightArm  45.2385 59.4604 101.682
RightForeArm  -59.7771 49.3253 15.8256
RightHand  -0.492024 1.64282 -8.2813
LeftUpLeg  4.29089 1.60044 2.87832
LeftLeg  -2.89424 0.0712205 -1.22089
LeftFoot  4.43007 0.803758 -6.002
LeftToes  4.7713e-008 1.46693e-008 1.32589e-009
196
root  -6.61664 41.3715 -0.293048 -8.7345 -75.9717 10.6565
RightUpLeg  10.2988 -5.76596 -4.18531
RightLeg  -3.64793 -27.2645 4.08406
RightFoot  1.57131 -0.923338 8.2416
RightToes  -3.11842e-008 1.75238e-005 3.56266e-009
Spine  -3.83992 10.7506 12.3184
Spine1  -0.849095 12.0907 -11.6457
HEad  -36.9088 -20.7634 4.68373
LeftShoulder1  1.33299 -2.65205 -14.8023
LeftArm  -61.8474 -17.3408 -2.34877
LeftForeArm  33.2378 -41.0436 -7.59636
LeftHand  -0.223811 0.673382 5.53255
RightShoulder  3.4435 10.3421 18.3483
RightArm  45.6941 59.2209 97.936
RightForeArm  -53.3835 56.3117 20.053
RightHand  -0.404746 1.65255 -6.81353
LeftUpLeg  5.14036 1.60372 2.74631
LeftLeg  -3.5842 -0.297554 -1.19105
LeftFoot  4.4417 0.795342 -5.92787
LeftToes  4.7713e-008 1.46693e-008 1.32589e-009
197
root  -6.71264 41.4852 -0.232093 -8.18336 -75.3641 10.8706
RightUpLeg  9.64257 -5.74642 -4.33659
RightLeg  -3.72121 -27.9148 4.11558
RightFoot  2.73015 -1.08198 8.89115
RightToes  -3.11842e-008 1.75238e-005 3.56266e-009
Spine  -5.20196 11.0805 12.5768
Spine1  -0.100524 12.4752 -12.3736
HEad  -36.2331 -21.4812 4.81296
LeftShoulder1  1.18852 -1.89138 -15.1854
LeftArm  -60.3631 -9.81479 -1.95877
LeftForeArm  30.7781 -45.6254 -9.27041
LeftHand  -0.213614 -0.28583 4.41485
RightShoulder  3.45503 10.0501 19.0224
RightArm  44.3047 58.4872 92.8939
RightForeArm  -45.5448 61.9159 24.9435
RightHand  -0.204248 1.9634 -3.40951
LeftUpLeg  4.16918 1.21429 2.46092
LeftLeg  -3.3885 -0.324949 -1.09868
LeftFoot  5.51647 0.918624 -6.42111
LeftToes  4.7713e-008 1.46693e-008 1.32589e-009
198
root  -6.69456 41.6661 -0.146518 -6.5018 -74.6297 9.91869
RightUpLeg  8.29072 -5.75116 -4.36253
RightLeg  -2.64891 -28.5783 3.68511
RightFoot  4.45423 -1.36578 10.04
RightToes  -3.11842e-008 1.75238e-005 3.56266e-009
Spine  -4.73428 11.3768 13.9398
Spine1  -1.44678 12.8513 -14.3003
HEad  -34.7419 -21.8547 4.92745
LeftShoulder1  1.0836 -1.42577 -15.1422
LeftArm  -59.6466 -2.98603 -3.27948
LeftForeArm  27.796 -49.5358 -11.0347
LeftHand  -0.239527 -0.300427 4.96112
RightShoulder  3.39724 9.64823 19.385
RightArm  41.6674 57.1874 87.2772
RightForeArm  -37.1471 65.9276 29.8565
RightHand  -0.0460734 2.40563 -0.883621
LeftUpLeg  2.40568 0.976945 2.46907
LeftLeg  -2.10382 -0.815435 -1.04822
LeftFoot  6.80345 1.04152 -6.77907
LeftToes  4.7713e-008 1.46693e-008 1.32589e-009
199
root  -6.64201 41.8166 -0.0704242 -5.64386 -74.0784 9.08774
RightUpLeg  7.50668 -5.7637 -4.39034
RightLeg  -1.2127 -28.8842 2.91285
RightFoot  5.84303 -1.63778 11.0775
RightToes  -3.11842e-008 1.75238e-005 3.56266e-009
Spine  -4.31049 11.5458 14.6809
Spine1  -1.68654 13.0796 -14.8553
HEad  -33.8633 -22.3914 4.14237
LeftShoulder1  1.11744 -1.44263 -15.8064
LeftArm  -60.4053 3.47782 -4.54816
LeftForeArm  26.3507 -53.0355 -12.8057
LeftHand  -0.220375 -0.485002 4.43442
RightShoulder  3.17034 9.10925 18.6438
RightArm  40.9628 56.731 84.0432
RightForeArm  -30.8777 68.121 33.4008
RightHand  -0.0270694 2.5382 -0.597157
LeftUpLeg  1.49216 1.03624 2.60413
LeftLeg  -0.994188 -1.53242 -1.12692
LeftFoot  7.90621 1.1666 -7.15718
LeftToes  4.7713e-008 1.46693e-008 1.32589e-009
200
root  -6.5594 41.8654 0.0178889 -4.58949 -73.3346 8.0269
RightUpLeg  7 -5.91496 -4.43467
RightLeg  -0.170489 -29.1938 2.58135
RightFoot  6.29805 -1.77182 11.6665
RightToes  -3.11842e-008 1.75238e-005 3.56266e-009
Spine  -4.04847 11.4248 15.5843
Spine1  -1.72635 13.0545 -15.6526
HEad  -32.7934 -22.4712 3.96571
LeftShoulder1  1.12916 -1.50212 -15.7662
LeftArm  -62.5225 9.38524 -6.52589
LeftForeArm  25.2751 -56.0824 -14.6142
LeftHand  -0.186477 -0.493362 3.76014
RightShoulder  2.97372 8.55334 18.1301
RightArm  40.511 57.0283 81.5697
RightForeArm  -27.461 69.1854 35.4329
RightHand  -0.049239 2.61697 -0.921921
LeftUpLeg  0.772907 1.01579 2.71263
LeftLeg  -0.127842 -2.46683 -1.10991
LeftFoot  8.12548 1.26601 -7.66288
LeftToes  4.7713e-008 1.46693e-008 1.32589e-009
201
root  -6.50349 41.7655 0.0840534 -4.2338 -72.5341 7.39961
RightUpLeg  7.21891 -6.1178 -4.43455
RightLeg  0.295461 -29.7216 2.53165
RightFoot  5.26755 -1.66696 11.6325
RightToes  -3.11842e-008 1.75238e-005 3.56266e-009
Spine  -3.78189 11.2442 15.9194
Spine1  -1.44257 12.9921 -15.9162
HEad  -32.0984 -21.8272 3.96269
LeftShoulder1  1.16933 -1.62587 -16.0262
LeftArm  -65.4692 13.8238 -8.51192
LeftForeArm  25.0531 -58.5261 -16.2616
LeftHand  -0.204814 -0.562824 4.08939
RightShoulder  2.78226 7.97123 17.6881
RightArm  39.706 57.6871 79.5052
RightForeArm  -25.7502 69.5697 36.2038
RightHand  -0.0364756 2.69886 -0.7356
LeftUpLeg  0.804992 0.771734 2.55662
LeftLeg  0.281129 -3.16152 -0.83559
LeftFoot  6.84252 1.05648 -6.85303
LeftToes  4.7713e-008 1.46693e-008 1.32589e-009
202
root  -6.41576 41.5261 0.150907 -3.75294 -72.0577 6.6302
RightUpLeg  7.49324 -6.15119 -4.16143
RightLeg  0.683345 -30.2298 2.3145
RightFoot  2.98826 -1.37847 11.0856
RightToes  -3.11842e-008 1.75238e-005 3.56266e-009
Spine  -3.59371 11.0992 16.5393
Spine1  -0.985249 13.0402 -16.5498
HEad  -30.5049 -22.7635 3.84446
LeftShoulder1  1.07178 -1.29794 -15.5203
LeftArm  -69.2368 16.7698 -11.3908
LeftForeArm  27.1536 -60.661 -17.6893
LeftHand  -0.213966 -0.916369 4.03895
RightShoulder  2.76006 7.75813 17.9674
RightArm  37.8689 58.5586 76.6242
RightForeArm  -22.1539 69.8077 36.5072
RightHand  -0.073977 2.76047 -1.26261
LeftUpLeg  1.31474 0.682427 2.48345
LeftLeg  0.0417976 -3.53961 -0.657249
LeftFoot  4.43931 0.789922 -5.88655
LeftToes  4.7713e-008 1.46693e-008 1.32589e-009
